<?xml version="1.0" standalone="no"?>
<!DOCTYPE svg PUBLIC "-//W3C//DTD SVG 20010904//EN"
 "http://www.w3.org/TR/2001/REC-SVG-20010904/DTD/svg10.dtd">
<svg version="1.0" xmlns="http://www.w3.org/2000/svg"
 width="1000.000000pt" height="1000.000000pt" viewBox="0 0 1000.000000 1000.000000"
 preserveAspectRatio="xMidYMid meet">
<metadata>
Created by potrace 1.14, written by Peter Selinger 2001-2017
</metadata>
<g transform="translate(0.000000,1000.000000) scale(0.100000,-0.100000)"
fill="#000000" stroke="none">
<path d="M4665 9949 c-755 -49 -1486 -267 -2135 -637 -923 -527 -1661 -1344
-2089 -2315 -583 -1322 -558 -2837 70 -4145 483 -1007 1302 -1828 2311 -2316
1363 -660 2948 -660 4318 1 870 419 1589 1079 2102 1926 100 166 279 529 351
712 507 1293 455 2725 -144 3973 -570 1188 -1607 2112 -2854 2542 -609 209
-1286 300 -1930 259z m610 -49 c938 -61 1808 -368 2555 -903 985 -706 1682
-1754 1939 -2917 293 -1330 41 -2688 -709 -3812 -354 -530 -830 -1002 -1372
-1360 -299 -199 -560 -336 -883 -466 -2098 -842 -4500 -137 -5822 1708 -589
822 -913 1834 -913 2848 0 1539 725 2992 1959 3924 923 698 2099 1052 3246
978z"/>
</g>
</svg>
